<?xml version="1.0" encoding="UTF-8" standalone="no"?>
<!-- Created with Inkscape (http://www.inkscape.org/) -->

<svg
   xmlns:dc="http://purl.org/dc/elements/1.1/"
   xmlns:cc="http://creativecommons.org/ns#"
   xmlns:rdf="http://www.w3.org/1999/02/22-rdf-syntax-ns#"
   xmlns:svg="http://www.w3.org/2000/svg"
   xmlns="http://www.w3.org/2000/svg"
   xmlns:sodipodi="http://sodipodi.sourceforge.net/DTD/sodipodi-0.dtd"
   xmlns:inkscape="http://www.inkscape.org/namespaces/inkscape"
   width="1052.3622"
   height="744.09448"
   id="svg2"
   version="1.1"
   inkscape:version="0.48+devel r10557 custom"
   sodipodi:docname="SYG_LOGO.svg"
   inkscape:export-filename="/Users/matthias/Documents/todoo/Todoos/Todoos/Todoos_files/SYG_Logo.png"
   inkscape:export-xdpi="90"
   inkscape:export-ydpi="90">
  <defs
     id="defs4" />
  <sodipodi:namedview
     id="base"
     pagecolor="#ffffff"
     bordercolor="#666666"
     borderopacity="1.0"
     inkscape:pageopacity="0.0"
     inkscape:pageshadow="2"
     inkscape:zoom="0.8"
     inkscape:cx="568.64776"
     inkscape:cy="386.33534"
     inkscape:document-units="px"
     inkscape:current-layer="layer1"
     showgrid="false"
     inkscape:window-width="1920"
     inkscape:window-height="1071"
     inkscape:window-x="0"
     inkscape:window-y="0"
     inkscape:window-maximized="1" />
  <metadata
     id="metadata7">
    <rdf:RDF>
      <cc:Work
         rdf:about="">
        <dc:format>image/svg+xml</dc:format>
        <dc:type
           rdf:resource="http://purl.org/dc/dcmitype/StillImage" />
        <dc:title></dc:title>
      </cc:Work>
    </rdf:RDF>
  </metadata>
  <g
     inkscape:label="Layer 1"
     inkscape:groupmode="layer"
     id="layer1"
     transform="translate(0,-308.2677)">
    <rect
       style="fill:none;stroke:#482c00;stroke-width:9.15515518;stroke-linecap:square;stroke-linejoin:miter;stroke-miterlimit:4;stroke-opacity:0.62895963;stroke-dasharray:none;stroke-dashoffset:0"
       id="rect338"
       width="233.75043"
       height="234.12798"
       x="83.287468"
       y="766.52417"
       rx="23.634048"
       ry="0"
       inkscape:export-xdpi="90"
       inkscape:export-ydpi="90" />
    <text
       sodipodi:linespacing="125%"
       id="use4217"
       y="997.06311"
       x="354.44888"
       style="font-size:72px;font-style:normal;font-variant:normal;font-weight:500;font-stretch:normal;text-align:justify;line-height:125%;letter-spacing:0px;word-spacing:0px;writing-mode:lr;text-anchor:start;fill:#000000;fill-opacity:1;stroke:none;font-family:Apple LiGothic;-inkscape-font-specification:Apple LiGothic Medium"
       xml:space="preserve"
       inkscape:export-filename="/Users/matthias/Downloads/TaskMan/rect338.png"
       inkscape:export-xdpi="90"
       inkscape:export-ydpi="90"><tspan
         y="997.06311"
         x="354.44888"
         style="font-size:72px;font-style:normal;font-variant:normal;font-weight:500;font-stretch:normal;text-align:justify;line-height:125%;writing-mode:lr;text-anchor:start;font-family:Apple LiGothic;-inkscape-font-specification:Apple LiGothic Medium"
         sodipodi:role="line"
         id="tspan5435">Share your Greatness</tspan></text>
    <path
       id="path159"
       style="fill:#000000"
       d="m 130.62932,947.93676 c -0.0821,-0.32644 0.23985,-0.80452 0.71544,-1.06239 1.1636,-0.63094 1.32989,-0.12137 0.2812,0.86161 -0.46608,0.43688 -0.91457,0.52723 -0.99664,0.20078 z m 2.18948,1.31344 c -0.39401,-0.80024 0.0795,-1.6998 0.78362,-1.48866 0.38294,0.11481 0.62215,0.51903 0.53155,0.89822 -0.19813,0.82956 -1.01654,1.19696 -1.31517,0.59044 z m 2.61653,0.83435 c 0.79025,-1.79322 0.22098,-3.21495 -1.29146,-3.22527 -1.58169,-0.0108 -1.32798,-0.20993 1.04365,-0.81916 0.97932,-0.25158 1.59191,-0.25109 1.3613,10e-4 -0.23061,0.25218 -0.32799,1.12923 -0.21648,1.94899 0.15189,1.11618 0.005,1.70184 -0.58499,2.33217 -0.73933,0.78994 -0.75852,0.77532 -0.31203,-0.23782 z m -12.26688,-1.33067 c 0.11081,-0.46391 0.37441,-0.63039 0.58577,-0.36993 0.21137,0.26046 0.32957,0.70266 0.26268,0.98268 -0.0669,0.28001 -0.33048,0.44649 -0.58578,0.36994 -0.25529,-0.0765 -0.37349,-0.51877 -0.26267,-0.98269 z m 8.10073,5.65214 c 1.06183,-0.40805 1.55441,-0.26035 1.39249,0.41755 -0.0711,0.29757 -0.59832,0.3964 -1.17163,0.21959 -0.84291,-0.25995 -0.88519,-0.38185 -0.22086,-0.63714 z m -1.23085,1.54833 c 0.48438,-10e-4 1.10886,0.19516 1.38769,0.43764 0.27887,0.24244 -0.11748,0.24386 -0.88068,0.004 -0.76325,-0.24072 -0.99141,-0.43903 -0.50701,-0.44079 z m 10.5363,9.30469 c 0.8264,-0.12349 1.36465,0.0503 1.59319,0.51448 0.2369,0.48113 -0.15448,0.53963 -1.24804,0.1865 -1.49699,-0.48344 -1.51785,-0.52574 -0.34515,-0.70096 z M 408.61265,682.19746 c -0.10314,-0.20943 -0.43448,0.0131 -0.7362,0.49435 -0.43607,0.69556 -0.3976,0.77369 0.18744,0.38078 0.40494,-0.27189 0.6519,-0.66567 0.54876,-0.87513 z M 259.16551,951.0245 c 2.95418,0.23067 7.1873,0.31331 9.40695,0.18363 3.56707,-0.20841 3.76379,-0.27758 1.69406,-0.59593 -1.28779,-0.1981 -2.83316,-0.28786 -3.43421,-0.19946 -0.60104,0.0884 -4.22684,-0.0719 -8.05741,-0.35605 -3.83057,-0.2842 -7.01623,-0.30118 -7.07912,-0.0378 -0.0628,0.26346 0.38345,0.50313 0.99201,0.53259 0.60848,0.0298 3.52347,0.24233 6.47772,0.47299 z m 7.31768,8.58945 c 0.52877,-0.36146 0.10305,-0.5834 -1.80755,-0.94229 -1.37457,-0.25821 -2.47166,-0.58495 -2.43805,-0.72558 0.0336,-0.14115 0.90259,-0.3977 1.93086,-0.57011 2.79769,-0.4691 1.9105,-1.07649 -1.63064,-1.11633 -5.59107,-0.0629 -8.39964,-0.41345 -14.63226,-1.82623 l -6.13417,-1.39051 3.88081,1.45356 c 5.90048,2.21006 20.01254,5.67729 20.83082,5.11799 z M 151.63228,927.46342 c 0.0711,-0.29756 -0.0796,-0.60366 -0.33495,-0.68022 -0.25527,-0.0765 -0.52232,0.10429 -0.59339,0.40186 -0.0711,0.29758 0.0796,0.60368 0.33493,0.68023 0.25529,0.0765 0.52231,-0.10428 0.59341,-0.40187 z m 106.03554,32.95463 c 0.0708,-0.29758 -0.0919,-0.60739 -0.36231,-0.68845 -0.2704,-0.0811 -0.4206,0.13477 -0.33391,0.47967 0.0867,0.34489 0.2497,0.65469 0.3623,0.68844 0.11261,0.0338 0.2628,-0.18209 0.33392,-0.47966 z m -4.14803,6.57462 c -0.25289,-0.51361 -4.91121,-3.48627 -6.09312,-3.88822 -0.97096,-0.33024 -0.97008,-0.35104 0.0212,-0.50673 0.7744,-0.12165 0.56628,-0.29472 -0.82996,-0.69015 -1.02491,-0.29026 -3.48755,-1.22561 -5.47245,-2.0785 -1.9849,-0.85291 -3.50206,-1.31337 -3.37141,-1.02329 0.13056,0.29012 3.16142,2.12655 6.73512,4.08096 6.26146,3.42434 9.37352,4.8424 9.01085,4.10594 z m -48.7061,0.17135 c 0.18511,0.73632 1.27263,-0.67739 2.52583,-3.28348 0.4962,-1.03186 0.0995,-0.882 -2.13907,0.80809 -1.51156,1.14121 -2.83626,2.42388 -2.94375,2.85038 -0.13291,0.52721 0.21571,0.47433 1.08889,-0.16522 0.88912,-0.65119 1.34091,-0.71575 1.4681,-0.20977 z m -87.82811,-21.67934 c 0.0711,-0.29757 -0.0919,-0.60738 -0.36233,-0.68843 -0.27036,-0.0811 -0.42062,0.13478 -0.33392,0.47967 0.0867,0.34488 0.24975,0.65468 0.36231,0.68843 0.11259,0.0339 0.26285,-0.1821 0.33394,-0.47967 z m -3.2568,-0.94233 c 0.0667,-0.28001 -0.0513,-0.72223 -0.26267,-0.98269 -0.21137,-0.26046 -0.47497,-0.094 -0.58579,0.36992 -0.11081,0.46393 0.007,0.90615 0.26271,0.9827 0.25526,0.0765 0.51886,-0.0899 0.58575,-0.36993 z m 83.88157,31.30066 c 0.66644,-1.68915 0.63992,-1.93232 -0.23964,-2.19605 -0.67962,-0.20379 -1.06993,0.042 -1.24754,0.78552 -0.14214,0.59514 -0.46735,1.01944 -0.72262,0.9429 -0.74591,-0.22366 -0.81479,1.01225 -0.11356,2.03725 0.81842,1.19628 1.3824,0.81526 2.32337,-1.56961 z m -4.55107,1.09987 c 0.4332,-0.53518 0.71801,-1.11448 0.63293,-1.28733 -0.20182,-0.40983 -2.04042,0.8371 -2.19624,1.48945 -0.21834,0.91415 0.76242,0.78734 1.56331,-0.20212 z m -51.04864,3.29609 c -2.04383,-1.17879 -5.66885,-3.80731 -8.05558,-5.84117 -2.38674,-2.03385 -5.74311,-4.38142 -7.4586,-5.21681 -2.93405,-1.42876 -7.11464,-5.02787 -8.59999,-7.40382 -0.51339,-0.82122 -0.49618,-1.44839 0.0759,-2.76538 1.17934,-2.7149 1.67845,-3.56079 1.87068,-3.17041 0.0986,0.20032 0.80259,0.21316 1.56438,0.0283 1.63492,-0.39644 7.04956,-0.21128 7.27612,0.24883 0.0863,0.17547 -0.66976,0.25526 -1.68036,0.17728 -2.33289,-0.17997 -4.202,0.31483 -5.75246,1.52287 -1.22048,0.9509 -1.22054,0.95114 -0.18454,0.78024 0.56964,-0.0941 1.50109,-0.0172 2.0699,0.17086 0.56878,0.18811 0.97682,0.11383 0.90671,-0.16506 -0.0701,-0.27888 0.84964,-0.60912 2.04388,-0.73383 2.63934,-0.27565 7.36169,0.3975 6.13622,0.87472 -0.45244,0.17618 -1.25171,0.19567 -1.77615,0.0433 -0.52442,-0.15244 -1.21941,-0.0969 -1.5444,0.12312 -0.32498,0.2201 -1.29052,0.28893 -2.14564,0.15299 -1.51927,-0.24155 -2.85742,0.0887 -1.72965,0.42685 2.13393,0.63987 7.62447,0.86549 8.08215,0.33209 0.61592,-0.71776 1.96424,-0.51772 1.77759,0.26374 -0.28313,1.18529 -2.02625,1.62747 -4.86335,1.23364 -2.76417,-0.38368 -2.8784,-0.35427 -1.25734,0.32361 1.28883,0.53896 1.56475,0.82689 0.99543,1.03873 -0.67812,0.25231 -0.69066,0.32147 -0.0903,0.49722 0.38355,0.11227 1.53127,0.22698 2.55053,0.25491 1.08123,0.0296 1.80499,0.25241 1.73751,0.53493 -0.0636,0.26623 -0.52104,0.36249 -1.01656,0.21391 -0.49553,-0.14857 -1.11344,-0.0378 -1.37318,0.24627 -0.33845,0.37012 0.12774,0.59565 1.64576,0.79615 5.20566,0.68755 7.03452,1.13092 8.88291,2.15344 1.88299,1.04166 1.75057,1.05087 -2.78196,0.19347 l -4.75909,-0.90026 2.94485,1.20717 c 2.72123,1.11551 2.84457,1.23159 1.62444,1.52888 -1.22644,0.29882 -1.18357,0.34149 0.60283,0.59989 1.05773,0.153 2.55504,0.44418 3.32732,0.64707 0.77226,0.20284 1.17235,0.16777 0.88909,-0.078 -1.06541,-0.92444 -0.26365,-1.14867 2.05406,-0.57446 2.92555,0.72476 4.26308,0.67426 4.46859,-0.16873 0.21296,-0.87098 3.20834,-1.75295 4.56926,-1.34487 0.60874,0.18253 1.92228,-0.20633 2.91901,-0.86413 0.99671,-0.65779 2.02621,-1.13183 2.28777,-1.05339 0.26154,0.0784 0.41129,-0.11311 0.33271,-0.42561 -0.0786,-0.31251 -0.59077,-0.56612 -1.13825,-0.56359 -1.54745,0.007 -0.98939,-0.77673 1.88454,-2.64722 2.89156,-1.88193 3.34951,-2.57308 1.97757,-2.98445 -1.34175,-0.40233 -1.32771,-1.26403 0.0339,-2.08521 2.37865,-1.43451 4.33149,-4.89936 2.07029,-3.67324 -1.10122,0.59712 -0.92993,-0.13569 0.54791,-2.34375 1.43281,-2.14094 1.62116,-2.84343 0.73054,-2.72478 -1.14246,0.15217 -1.57909,-1.69047 -0.66743,-2.81676 0.61853,-0.76392 0.6426,-1.004 0.11668,-1.16168 -0.3646,-0.10934 -0.87037,0.13037 -1.12395,0.53266 -0.63209,1.0029 -1.31156,0.7036 -1.03039,-0.45391 0.79145,-3.25837 0.75269,-3.86985 -0.2451,-3.86523 -0.85381,0.004 -0.9323,-0.26173 -0.55006,-1.86198 0.55893,-2.33995 0.27752,-2.9452 -1.00871,-2.16953 -0.93152,0.56177 -1.01291,0.45103 -1.09194,-1.48574 -0.0846,-2.07018 -0.97434,-3.03657 -1.70757,-1.85444 -0.26534,0.42777 -0.50902,0.24114 -0.81224,-0.62203 -0.23827,-0.67821 -0.6984,-1.13796 -1.02255,-1.02165 -0.32414,0.11629 -0.80678,-0.44516 -1.07255,-1.24768 -0.32303,-0.97547 -0.61055,-1.25709 -0.86738,-0.84958 -0.57372,0.91033 -1.61144,0.39364 -2.39158,-1.19077 -0.48508,-0.9852 -0.89902,-1.29385 -1.38316,-1.03134 -0.37998,0.20604 -1.28175,0.0614 -2.00392,-0.32148 -2.31339,-1.22645 -4.95709,-1.77261 -6.28103,-1.29756 -0.37144,0.13326 -1.07067,-0.0481 -1.55384,-0.4032 -0.58299,-0.42833 -1.30264,-0.38646 -2.13923,0.12421 -0.69338,0.4233 -1.82575,0.79259 -2.51638,0.82063 -0.69066,0.028 -1.6145,0.23759 -2.053,0.4657 -0.43849,0.22809 -1.34826,0.28845 -2.02168,0.13413 -1.61654,-0.37043 -2.83182,-0.38563 -3.33961,-0.0417 -0.22703,0.15374 -0.77014,0.17238 -1.2069,0.0414 -0.43678,-0.13097 -1.14142,0.0491 -1.56583,0.40018 -0.42444,0.35106 -1.26832,0.48939 -1.87527,0.30741 -0.60696,-0.18202 -1.63765,0.0308 -2.29039,0.4728 -0.65275,0.44206 -1.37333,0.74781 -1.60131,0.67945 -0.22797,-0.0683 -0.62326,0.20691 -0.87839,0.61169 -0.25515,0.40479 -0.61428,0.63677 -0.79811,0.5155 -0.76723,-0.50608 -2.52454,0.0497 -3.74957,1.18595 -1.03645,0.96126 -1.52637,2.07806 -2.33785,5.32917 -1.03623,4.15168 -0.97173,4.80335 0.59916,6.05204 0.57957,0.46072 0.88972,0.2537 1.40541,-0.93807 0.36395,-0.84109 0.85482,-1.47134 1.09085,-1.40055 0.23605,0.0708 0.98335,1.21632 1.66069,2.54567 l 1.23153,2.41699 -1.39469,2.31742 c -0.76709,1.27458 -1.72821,3.65243 -2.13583,5.28409 -0.40755,1.63168 -0.79413,2.55162 -0.85892,2.04435 -0.0647,-0.50729 -0.72628,-2.82605 -1.46998,-5.15281 -0.74372,-2.32676 -1.31986,-4.36591 -1.28033,-4.5314 0.0396,-0.16552 -0.79242,-3.37009 -1.84878,-7.12129 -1.05638,-3.75119 -2.32468,-9.04098 -2.81847,-11.75508 -1.00351,-5.51589 -2.18438,-10.96813 -2.49079,-11.50031 -0.11095,-0.19271 -0.65884,-1.66154 -1.21749,-3.26405 -4.98254,-14.29235 -11.51609,-27.64814 -20.0523,-39.32244 -1.26293,-1.72721 -2.96182,-4.10223 -3.77532,-5.2778 -1.39373,-2.01405 -5.6951,-7.21121 -13.02842,-15.74167 -3.5987,-4.18616 -7.337112,-7.91974 -10.742273,-10.72833 -3.48837,-2.87723 -0.549025,-1.56196 -2.956716,-6.93117 -1.204863,-2.68685 -2.1441,-5.08005 -2.087201,-5.31824 0.230732,-0.96598 -3.840972,-12.34574 -7.044262,-19.68756 -1.014185,-2.32445 -2.861997,-9.50699 -2.940455,-11.42966 -0.05298,-1.29633 0.323562,-3.47121 0.918435,-5.30599 0.626754,-1.93315 0.958721,-3.93994 0.877754,-5.30533 -0.198166,-3.33965 0.183636,-10.13795 0.687928,-12.24915 1.32106,-5.53067 5.445828,-13.76805 11.038329,-22.04416 2.740493,-4.05554 2.955641,-4.25116 3.530434,-3.21016 1.119254,2.02708 0.883138,4.9495 -0.90007,11.14062 -0.92573,3.21394 -1.469412,5.67598 -1.208213,5.47121 0.711554,-0.55786 4.855264,-7.60329 5.112874,-8.69325 0.516891,-2.18704 1.283646,-0.14101 2.324346,6.20222 0.32485,1.97998 0.2491,3.83813 -0.23992,5.88536 -0.63134,2.6431 -0.60087,3.08632 0.2614,3.80287 0.99562,0.82733 2.15054,3.67394 3.42405,8.4394 0.83266,3.11576 0.0627,7.39319 -1.84351,10.24145 -1.64188,2.45332 -1.69419,3.17407 -0.16281,2.24343 4.24171,-2.57776 6.00354,-1.32908 8.54677,6.0574 1.14879,3.33655 1.03567,4.96254 -0.43833,6.29933 -1.01636,0.92174 -0.79113,2.41943 0.41839,2.78212 1.50509,0.4513 3.78947,3.61441 5.84642,8.09537 1.20499,2.625 2.14006,4.98561 2.07792,5.24578 -0.2047,0.85696 0.99585,1.42683 3.16937,1.50446 1.70958,0.0611 2.44598,0.36463 3.6563,1.50715 1.49785,1.414 1.53648,1.41916 3.30617,0.4428 0.98484,-0.54334 1.9762,-0.93225 2.20301,-0.86424 0.22682,0.068 0.93631,1.00851 1.5766,2.08997 2.12133,3.58274 1.07174,4.16571 5.8252,9.00455 2.58085,2.62722 5.33848,5.95994 6.12807,7.40601 0.78958,1.44611 1.67251,2.70031 1.96209,2.78715 0.49803,0.14932 3.35496,3.89925 7.04844,9.25159 0.91452,1.32527 3.35436,4.69861 5.42187,7.49631 2.06748,2.79768 4.22817,5.93409 4.80152,6.96976 0.57335,1.03567 2.11696,3.47567 3.43024,5.42225 1.31328,1.94657 2.55855,4.06284 2.76728,4.70282 0.20872,0.63999 1.23436,2.43724 2.27917,3.99393 2.02455,3.01634 4.0162,8.00429 5.66733,12.19931 0.54356,1.38101 2.26739,5.37775 3.83072,8.88166 1.56334,3.50392 3.06132,7.20417 3.32886,8.22282 0.5778,2.19994 0.49108,2.19414 8.0631,0.53841 5.73226,-1.25343 5.96226,-1.38552 14.51005,-8.33294 2.14957,-1.74713 4.28903,-3.48577 4.75433,-3.86364 1.42725,-1.15908 8.50926,-12.82648 12.61753,-20.78703 2.61078,-5.05883 27.04707,-34.59061 37.26686,-53.29285 2.09614,-3.83593 4.5096,-8.33044 5.36325,-9.98781 11.13658,-21.62177 12.91661,-24.02725 22.83465,-30.85898 3.92938,-2.70669 7.91032,-5.31644 8.84642,-5.79944 0.9361,-0.48301 4.99161,-3.41337 9.01227,-6.51194 11.24422,-8.66547 65.96882,-44.80655 79.49099,-52.57681 3.95573,-2.27308 3.50497,-1.94775 9.02987,-6.51753 2.54658,-2.1064 4.77295,-3.91743 4.94748,-4.02456 0.17451,-0.10713 4.98825,-4.14281 10.69721,-8.96819 5.70898,-4.82538 11.01292,-9.26398 11.78645,-9.86355 0.77352,-0.59958 2.92224,-2.28204 4.77489,-3.73879 5.75391,-4.52437 15.6248,-9.79511 17.36618,-9.27295 0.1379,0.0414 0.12375,0.60613 -0.031,1.25515 -0.22812,0.95498 0.70047,0.54243 4.8692,-2.16372 7.11281,-4.61713 10.46175,-6.45196 15.13334,-8.29134 3.6449,-1.43514 4.2623,-1.50483 6.74494,-0.76164 l 2.73277,0.81807 -2.92091,2.16809 c -3.66873,2.72317 -7.49919,5.20353 -20.0029,12.95246 -5.47103,3.39057 -34.16351,22.48723 -33.3462,22.19395 0.357,-0.12808 3.79564,-1.92734 7.64142,-3.99834 10.58294,-5.69899 22.06165,-11.4509 25.20122,-12.62815 0.78414,-0.29403 1.79321,-0.77039 2.24247,-1.05852 0.44917,-0.28815 2.91976,-1.36306 5.49005,-2.38872 12.32061,-4.91618 20.59164,-7.05578 27.46227,-7.10409 3.21343,-0.0226 3.09782,-0.0557 2.88651,0.82917 -0.20195,0.84543 -1.46709,1.61394 -8.73276,5.30462 -6.76334,3.43554 -7.84256,3.9015 -13.69527,5.91326 -7.56402,2.59999 -14.82782,5.49499 -14.97341,5.96773 -0.0734,0.23889 0.55141,0.14251 1.38889,-0.21405 1.34184,-0.57128 3.36415,-1.18536 12.20111,-3.70525 2.49315,-0.71091 9.27205,-1.69436 12.88176,-1.86883 6.28852,-0.30394 11.43952,0.72439 11.50126,2.29608 0.031,0.7865 -6.13302,2.77377 -19.25262,6.20708 -5.10687,1.33642 -9.90212,2.67013 -10.65618,2.96382 -0.75407,0.29368 -2.02187,0.69728 -2.81725,0.89693 -0.79537,0.19963 -1.9657,0.68725 -2.60071,1.08361 -0.6351,0.39636 -1.32026,0.67212 -1.52273,0.61276 -0.20238,-0.0593 -1.48744,0.36142 -2.85555,0.93505 -3.15505,1.32283 -2.78921,1.27997 4.62736,-0.54208 10.47326,-2.57305 23.45647,-3.26708 29.15474,-1.55844 2.81831,0.84507 2.21037,2.30502 -1.34971,3.24114 -1.53255,0.40298 -3.60466,0.9949 -4.60472,1.31535 -1.00014,0.32045 -2.66634,0.73623 -3.70266,0.92395 -1.03632,0.18771 -2.24929,0.464 -2.69545,0.61398 -0.44625,0.14998 -3.18132,0.82407 -6.07799,1.49798 -6.30056,1.46578 -20.04385,5.3953 -22.18867,6.34425 -0.84041,0.37179 -1.74183,0.61184 -2.0033,0.53344 -0.26147,-0.0784 -0.82696,0.0911 -1.25675,0.37664 -0.42971,0.28555 -2.36322,1.0508 -4.29663,1.70055 -1.93351,0.64975 -4.13423,1.42953 -4.8906,1.73287 -0.75646,0.30332 -1.81179,0.60482 -2.34526,0.67 -0.53347,0.0652 -0.88763,0.2858 -0.78688,0.49028 0.10066,0.20448 3.97121,-0.16935 8.60122,-0.83075 10.53456,-1.50481 18.08778,-2.19246 22.54886,-2.05287 1.90077,0.0595 4.38738,0.1383 5.5256,0.17513 2.92109,0.0946 4.89661,0.78074 5.44308,1.89066 0.36629,0.74378 0.31649,1.03328 -0.22644,1.31972 -2.76754,1.46 -24.00179,7.41745 -25.17937,7.06434 -0.38133,-0.11434 -0.74912,0.0258 -0.81732,0.31144 -0.0681,0.28562 -1.03189,0.56071 -2.14163,0.61126 -1.10956,0.0506 -2.3273,0.34822 -2.70588,0.66141 -0.37868,0.3132 -1.05499,0.45951 -1.5031,0.32516 -0.4481,-0.13436 -1.16192,0.043 -1.58632,0.39403 -0.42449,0.35106 -1.0595,0.55202 -1.4111,0.44658 -0.35169,-0.10546 -0.68976,0.019 -0.75132,0.27666 -0.0628,0.26333 0.80112,0.52087 1.97348,0.58833 7.15422,0.41126 8.62193,0.86722 8.21911,2.55343 -0.22025,0.92234 -1.06481,1.49304 -7.34908,4.96645 -1.54113,0.85185 -3.77051,2.10637 -4.9542,2.78784 -1.1836,0.68148 -2.34879,1.18005 -2.58912,1.10796 -0.52445,-0.15724 -3.05687,1.69163 -4.53979,3.31443 -0.97512,1.06712 -4.70069,4.03061 -8.46262,6.73158 -0.82554,0.5927 -2.17843,1.33684 -3.00645,1.65364 -0.90373,0.34579 -1.62082,1.05922 -1.7942,1.78498 -0.59166,2.47698 -6.54741,7.37432 -11.9023,9.78703 -2.52085,1.13583 -3.22926,1.74021 -3.84366,3.27906 -0.52604,1.31754 -1.64507,2.50501 -3.71019,3.93696 -5.64874,3.9169 -24.33807,14.35907 -31.76808,12.13118 -3.24589,-0.97329 -4.34386,-1.09051 -5.25476,-0.56102 -1.7221,1.001 -3.94954,4.05786 -5.35683,7.35134 -0.68836,1.61109 -2.01223,3.69275 -2.94197,4.62594 -0.92965,0.93317 -2.32456,3.07197 -3.09977,4.75285 -1.77305,3.84476 -2.67926,5.00269 -4.15112,5.30475 -0.82634,0.16956 -1.61862,1.11228 -2.71102,3.22568 -1.56934,3.03621 -2.74144,4.11387 -4.57305,4.20466 -0.76486,0.0379 -1.45462,0.93163 -2.7517,3.5653 -2.27388,4.61707 -3.54283,5.6718 -6.64782,5.52569 -2.57249,-0.12102 -5.82874,0.50025 -5.55338,1.05961 0.0867,0.17631 1.20545,0.32674 2.48572,0.33438 3.20397,0.019 3.45403,0.66347 1.72476,4.44594 -1.73333,3.79147 -3.3998,6.02307 -4.55332,6.09735 -0.50561,0.0326 -1.02491,0.50137 -1.15397,1.04175 -0.12958,0.54238 -0.74442,1.01739 -1.37245,1.06035 -0.96388,0.0659 -1.02279,0.15371 -0.38557,0.57439 0.56682,0.37424 0.60025,0.83331 0.13552,1.86352 -1.30602,2.89512 -2.23841,4.22985 -4.05489,5.80484 -1.03509,0.89755 -1.81649,1.76506 -1.73635,1.9278 0.29093,0.59086 -24.38593,30.44194 -25.68486,31.69061 -0.73372,0.70527 -1.43834,1.73256 -1.56581,2.28289 -0.1272,0.5504 -1.11186,2.56307 -2.18745,4.47276 -1.45179,2.57746 -2.60647,3.91594 -4.48115,5.19433 -1.61932,1.10427 -2.64131,2.20719 -2.8483,3.07405 -0.17761,0.74354 -1.04658,2.56991 -1.93102,4.05857 -1.0143,1.7072 -1.67718,3.42956 -1.79535,4.66423 -0.25059,2.62001 -2.15915,6.20219 -3.88373,7.28921 -0.76963,0.48517 -1.47655,1.20489 -1.57076,1.59938 -0.0943,0.39448 -0.44819,0.63423 -0.78671,0.53275 -1.5926,-0.47756 -6.6441,6.07342 -5.40707,7.01211 1.2487,0.94748 2.04177,3.5905 1.61427,5.37987 -0.38282,1.60291 -0.84145,2.04446 -3.39511,3.26873 -3.88519,1.86267 -6.05035,2.4021 -7.68004,1.91343 -1.20616,-0.36167 -1.35213,-0.24459 -1.51062,1.21167 -0.136,1.24949 0.20371,1.97071 1.51053,3.20699 0.9273,0.87722 1.76043,2.19716 1.85145,2.93319 0.12191,0.98599 0.6943,1.60018 2.17474,2.33348 2.40294,1.19026 7.60233,1.62072 8.6207,0.71371 0.3968,-0.35342 1.7864,-0.54856 3.088,-0.43364 10.18119,0.89898 17.32469,1.09044 27.85492,0.74657 6.91061,-0.22568 16.87367,-1.02599 20.46727,-1.64411 1.10072,-0.18933 2.06504,-0.21471 2.14296,-0.0564 0.22848,0.46393 -2.39868,1.33543 -3.93556,1.30556 -2.15199,-0.0418 -2.44256,0.18779 -1.51353,1.19615 0.7538,0.81811 0.15019,0.96722 -5.25184,1.29729 -3.35691,0.20511 -6.04722,0.48722 -5.97849,0.62693 0.069,0.13969 2.56073,0.3158 5.53755,0.39133 8.28819,0.21029 9.21668,0.27845 11.09526,0.8146 0.96043,0.27406 1.69327,0.72011 1.62852,0.99114 -0.24113,1.00951 -7.103,1.98046 -9.31302,1.31779 -1.84894,-0.55443 -2.28537,0.26472 -0.63668,1.19523 1.0441,0.58929 1.22092,0.89904 0.71046,1.24472 -0.49322,0.33401 -0.80829,0.24784 -1.14946,-0.31428 -0.27252,-0.44916 -1.32698,-0.89306 -2.51031,-1.05676 -3.01432,-0.41699 -2.10334,1.06297 1.63568,2.65731 3.46986,1.47957 5.47802,2.99451 5.04036,3.80245 -0.42865,0.79124 -4.71617,1.6938 -8.09475,1.70405 -1.58296,0.004 -4.06391,0.28772 -5.51322,0.62873 -1.4494,0.34101 -3.33479,0.73781 -4.18996,0.88181 -1.5375,0.2589 -1.52476,0.27506 1.14494,1.45403 1.48479,0.65573 3.54965,1.81984 4.58845,2.58691 l 1.88874,1.39466 -1.93164,0.69308 c -2.18843,0.78522 -8.01717,0.63233 -11.09668,-0.29106 -2.17242,-0.65139 -3.08871,0.21282 -1.785,1.6834 0.35957,0.40553 0.44431,1.05492 0.19027,1.45798 -0.52931,0.83982 -5.76231,-0.31756 -5.54525,-1.22644 0.0708,-0.29617 -0.75326,-0.82895 -1.83116,-1.18394 -1.68663,-0.55551 -1.78305,-0.65962 -0.69206,-0.74699 1.06374,-0.0852 0.93309,-0.20835 -0.81201,-0.76523 -4.96631,-1.58483 -7.76719,-2.78448 -8.21176,-3.51715 -0.3585,-0.59086 -0.80899,-0.62781 -1.81002,-0.14846 l -1.33265,0.63815 2.81867,1.50698 c 5.96592,3.18961 8.72108,4.42587 12.19314,5.4712 2.08591,0.62754 3.54204,1.30997 3.46703,1.62379 -0.0708,0.29757 -0.18531,0.52423 -0.25395,0.50365 -0.0681,-0.0206 -2.79787,-0.0562 -6.065,-0.0792 -3.26721,-0.0231 -6.39829,-0.17911 -6.95784,-0.3469 -0.55956,-0.16779 -1.78341,0.11751 -2.7196,0.63401 -0.93619,0.5165 -2.253,0.77394 -2.92613,0.57208 -0.67322,-0.20186 -1.43153,-0.0379 -1.68504,0.36443 -0.34055,0.54021 -1.20659,0.50814 -3.31267,-0.1227 -1.93634,-0.58004 -3.45253,-0.67726 -4.72413,-0.30305 -6.39835,1.88303 -6.11035,1.88453 -11.40996,-0.059 l -4.94631,-1.81397 -1.14688,2.22156 c -0.63077,1.22188 -1.3286,2.16709 -1.55071,2.10049 -0.22211,-0.0666 -0.48424,0.21551 -0.58251,0.62692 -0.25223,1.05595 -6.99989,3.58528 -7.79354,2.92137 -0.35408,-0.29619 -1.4301,-0.52247 -2.39117,-0.50284 -0.96107,0.0196 -2.40453,-0.34785 -3.20769,-0.81662 -1.33747,-0.7806 -1.74626,-0.67721 -4.86022,1.22911 -3.63361,2.22449 -5.94243,2.96045 -12.80594,4.08201 -8.21982,1.34321 -16.74636,-0.26789 -24.21503,-4.57547 z"
       inkscape:connector-curvature="0"
       inkscape:export-filename="/Users/matthias/Downloads/TaskMan/rect338.png"
       inkscape:export-xdpi="90"
       inkscape:export-ydpi="90"
       sodipodi:nodetypes="csscccccccscccccccsccsccsccccccscccccccssccsccscscssscsccccccccssccccccscsccsssccscccccccccccsccscccccccssssccccsccccccccsccssccsccsssscsssccscsssccsssscccccscsscccccscsccccscsccccsccccscscscsccscsscsssssscscscsssssssscssssssscsssccsccssssccsssssssssssssccssscccsscsscssccccsscssscssccccssscccscccccccsscccccccccsccccccsccccsssccccccsscccsccccscccccscsccccccsssscssssscccscsccssccsscccccscsscsccsscscscccccsccccscsscscssscc" />
    <flowRoot
       xml:space="preserve"
       id="flowRoot5459"
       style="font-size:56px;font-style:normal;font-variant:normal;font-weight:normal;font-stretch:normal;line-height:125%;letter-spacing:0px;word-spacing:0px;fill:#000000;fill-opacity:1;stroke:none;font-family:'01 Digit';-inkscape-font-specification:'01 Digit'"
       transform="matrix(0.7207881,0,0,0.7207881,-15.455143,591.11041)"><flowRegion
         id="flowRegion5461"><rect
           id="rect5463"
           width="588.88892"
           height="459.25925"
           x="166.66667"
           y="221.87225" /></flowRegion><flowPara
         id="flowPara5465"></flowPara></flowRoot>  </g>
</svg>
